# xmcd
#
# Track frame offsets:
#	150
#	14562
#	39482
#	61305
#	73407
#	93610
#	110192
#	121332
#	133910
#	153545
#	165907
#	180035
#	196227
#
# Disc length: 2788 seconds
#
# Revision: 0
# Processed by: cddbd v1.5.2PL0 Copyright (c) Steve Scherf et al.
# Submitted via: audiograbber 1.83.01
#
DISCID=b50ae20d
DTITLE=Nitty Gritty Dirt Band - Will The Circle Be Unbroken
DYEAR=2202
DGENRE=Country
TTITLE0=Grand Ole Opry Song
TTITLE1=Will The Circle Be Unbroken
TTITLE2=Tennessee Stud
TTITLE3=Black Mountain Rag
TTITLE4=Keep On The Sunnyside
TTITLE5=Are You My Flower
TTITLE6=Foggy Mountain Breakdown
TTITLE7=Dark As A Dungeon
TTITLE8=I Saw The Light
TTITLE9=Lonesome Fiddle Blues
TTITLE10=Nine Pound Hammer
TTITLE11=Wildwood Flower
TTITLE12=Soldier's Joy
EXTD=
EXTT0=
EXTT1=
EXTT2=
EXTT3=
EXTT4=
EXTT5=
EXTT6=
EXTT7=
EXTT8=
EXTT9=
EXTT10=
EXTT11=
EXTT12=
PLAYORDER=
